<?xml version="1.0" encoding="UTF-8" standalone="no"?>
<!DOCTYPE svg PUBLIC "-//W3C//DTD SVG 1.1//EN" "http://www.w3.org/Graphics/SVG/1.1/DTD/svg11.dtd">
<!-- Created with Vectornator (http://vectornator.io/) -->
<svg stroke-miterlimit="10" style="fill-rule:nonzero;clip-rule:evenodd;stroke-linecap:round;stroke-linejoin:round;" version="1.1" viewBox="0 0 841.995 595.35" xml:space="preserve" xmlns="http://www.w3.org/2000/svg" xmlns:xlink="http://www.w3.org/1999/xlink">
<defs/>
<g id="Layer-1">
<path d="M68.6697 533.264L111.106 533.264L111.106 555.095L68.6697 555.095L68.6697 533.264Z" fill="none" opacity="1" stroke="#000000" stroke-linecap="round" stroke-linejoin="round" stroke-width="3"/>
<path d="M87.9444 527.005C87.9444 527.005 105.562 503.402 139.214 503.605C170.579 503.795 185.512 528.423 185.512 528.423" fill="none" opacity="1" stroke="#000000" stroke-linecap="round" stroke-linejoin="round" stroke-width="3"/>
<path d="M167.524 527.836L186.295 529.413L186.295 513.55" fill="none" opacity="1" stroke="#000000" stroke-linecap="round" stroke-linejoin="round" stroke-width="3"/>
<path d="M181.193 533.672L223.63 533.672L223.63 555.503L181.193 555.503L181.193 533.672Z" fill="none" opacity="1" stroke="#000000" stroke-linecap="round" stroke-linejoin="round" stroke-width="3"/>
<path d="M200.468 527.413C200.468 527.413 218.085 503.81 251.737 504.013C283.102 504.202 298.036 528.831 298.036 528.831" fill="none" opacity="1" stroke="#000000" stroke-linecap="round" stroke-linejoin="round" stroke-width="3"/>
<path d="M279.519 527.675L298.29 529.251L298.29 513.389" fill="none" opacity="1" stroke="#000000" stroke-linecap="round" stroke-linejoin="round" stroke-width="3"/>
<path d="M285.72 535.485L328.157 535.485L328.157 557.316L285.72 557.316L285.72 535.485Z" fill="none" opacity="1" stroke="#000000" stroke-linecap="round" stroke-linejoin="round" stroke-width="3"/>
<path d="M304.995 529.227C304.995 529.227 322.613 505.623 356.264 505.826C387.629 506.016 402.563 530.645 402.563 530.645" fill="none" opacity="1" stroke="#000000" stroke-linecap="round" stroke-linejoin="round" stroke-width="3"/>
<path d="M384.575 530.057L403.346 531.634L403.346 515.771" fill="none" opacity="1" stroke="#000000" stroke-linecap="round" stroke-linejoin="round" stroke-width="3"/>
<path d="M398.244 535.893L440.681 535.893L440.681 557.724L398.244 557.724L398.244 535.893Z" fill="none" opacity="1" stroke="#000000" stroke-linecap="round" stroke-linejoin="round" stroke-width="3"/>
<path d="M417.518 529.634C417.518 529.634 435.136 506.031 468.788 506.234C500.153 506.424 515.087 531.052 515.087 531.052" fill="none" opacity="1" stroke="#000000" stroke-linecap="round" stroke-linejoin="round" stroke-width="3"/>
<path d="M496.57 529.896L515.34 531.473L515.34 515.61" fill="none" opacity="1" stroke="#000000" stroke-linecap="round" stroke-linejoin="round" stroke-width="3"/>
<path d="M503.03 536.527L545.467 536.527L545.467 558.359L503.03 558.359L503.03 536.527Z" fill="none" opacity="1" stroke="#000000" stroke-linecap="round" stroke-linejoin="round" stroke-width="3"/>
<path d="M522.305 530.269C522.305 530.269 539.923 506.665 573.574 506.869C604.939 507.058 619.873 531.687 619.873 531.687" fill="none" opacity="1" stroke="#000000" stroke-linecap="round" stroke-linejoin="round" stroke-width="3"/>
<path d="M601.885 531.099L620.656 532.676L620.656 516.813" fill="none" opacity="1" stroke="#000000" stroke-linecap="round" stroke-linejoin="round" stroke-width="3"/>
<path d="M615.554 536.935L657.99 536.935L657.99 558.766L615.554 558.766L615.554 536.935Z" fill="none" opacity="1" stroke="#000000" stroke-linecap="round" stroke-linejoin="round" stroke-width="3"/>
<path d="M117.169 474.327L159.606 474.327L159.606 496.158L117.169 496.158L117.169 474.327Z" fill="none" opacity="1" stroke="#000000" stroke-linecap="round" stroke-linejoin="round" stroke-width="3"/>
<path d="M226.983 473.419L269.419 473.419L269.419 495.251L226.983 495.251L226.983 473.419Z" fill="none" opacity="1" stroke="#000000" stroke-linecap="round" stroke-linejoin="round" stroke-width="3"/>
<path d="M334.72 474.393L377.157 474.393L377.157 496.224L334.72 496.224L334.72 474.393Z" fill="none" opacity="1" stroke="#000000" stroke-linecap="round" stroke-linejoin="round" stroke-width="3"/>
<path d="M443.866 475.18L486.303 475.18L486.303 497.011L443.866 497.011L443.866 475.18Z" fill="none" opacity="1" stroke="#000000" stroke-linecap="round" stroke-linejoin="round" stroke-width="3"/>
<path d="M553.901 476.898L596.337 476.898L596.337 498.73L553.901 498.73L553.901 476.898Z" fill="none" opacity="1" stroke="#000000" stroke-linecap="round" stroke-linejoin="round" stroke-width="3"/>
</g>
</svg>
