<?xml version="1.0" encoding="UTF-8" standalone="no"?>
<!DOCTYPE svg PUBLIC "-//W3C//DTD SVG 1.1//EN" "http://www.w3.org/Graphics/SVG/1.1/DTD/svg11.dtd">
<!-- Created with Vectornator (http://vectornator.io/) -->
<svg stroke-miterlimit="10" style="fill-rule:nonzero;clip-rule:evenodd;stroke-linecap:round;stroke-linejoin:round;" version="1.1" viewBox="0 0 841.995 266.242" xml:space="preserve" xmlns="http://www.w3.org/2000/svg" xmlns:xlink="http://www.w3.org/1999/xlink">
<defs/>
<g id="Layer-1">
<path d="M69.9894 145.666C79.0656 146.806 86.7044 155.421 89.2673 162.337" fill="none" opacity="1" stroke="#000000" stroke-linecap="round" stroke-linejoin="round" stroke-width="3"/>
<path d="M77.7494 159.403L91.0351 164L90.3699 149.173" fill="none" opacity="1" stroke="#000000" stroke-linecap="round" stroke-linejoin="round" stroke-width="3"/>
<path d="M32.2242 130.821C32.7663 151.697 56.4663 154.985 69.1405 145.867C73.5279 142.711 76.5941 138.069 76.921 132.154C78.5049 103.497 31.5944 106.573 32.2242 130.821Z" fill="none" opacity="1" stroke="#000000" stroke-linecap="round" stroke-linejoin="round" stroke-width="3"/>
<path d="M34.8123 145.637C29.6799 146.529 18.81 158.983 18.81 158.983" fill="none" opacity="1" stroke="#000000" stroke-linecap="round" stroke-linejoin="round" stroke-width="3"/>
<path d="M155.375 144.956C164.451 146.096 172.09 154.711 174.653 161.627" fill="none" opacity="1" stroke="#000000" stroke-linecap="round" stroke-linejoin="round" stroke-width="3"/>
<path d="M163.135 158.693L176.42 163.29L175.755 148.463" fill="none" opacity="1" stroke="#000000" stroke-linecap="round" stroke-linejoin="round" stroke-width="3"/>
<path d="M117.609 130.111C118.152 150.987 141.852 154.275 154.526 145.157C158.913 142.001 161.979 137.359 162.306 131.444C163.89 102.787 116.98 105.863 117.609 130.111Z" fill="none" opacity="1" stroke="#000000" stroke-linecap="round" stroke-linejoin="round" stroke-width="3"/>
<path d="M120.198 144.927C115.065 145.819 104.195 158.273 104.195 158.273" fill="none" opacity="1" stroke="#000000" stroke-linecap="round" stroke-linejoin="round" stroke-width="3"/>
<path d="M242.937 146.048C252.013 147.188 259.652 155.803 262.215 162.719" fill="none" opacity="1" stroke="#000000" stroke-linecap="round" stroke-linejoin="round" stroke-width="3"/>
<path d="M250.697 159.785L263.983 164.382L263.317 149.556" fill="none" opacity="1" stroke="#000000" stroke-linecap="round" stroke-linejoin="round" stroke-width="3"/>
<path d="M205.172 131.203C205.714 152.079 229.414 155.367 242.088 146.25C246.476 143.094 249.542 138.451 249.869 132.536C251.453 103.879 204.542 106.955 205.172 131.203Z" fill="none" opacity="1" stroke="#000000" stroke-linecap="round" stroke-linejoin="round" stroke-width="3"/>
<path d="M207.76 146.019C202.627 146.911 191.758 159.365 191.758 159.365" fill="none" opacity="1" stroke="#000000" stroke-linecap="round" stroke-linejoin="round" stroke-width="3"/>
<path d="M330.968 146.862C340.044 148.002 347.683 156.617 350.246 163.533" fill="none" opacity="1" stroke="#000000" stroke-linecap="round" stroke-linejoin="round" stroke-width="3"/>
<path d="M338.728 160.599L352.014 165.196L351.348 150.369" fill="none" opacity="1" stroke="#000000" stroke-linecap="round" stroke-linejoin="round" stroke-width="3"/>
<path d="M293.203 132.017C293.745 152.893 317.445 156.181 330.119 147.064C334.506 143.907 337.573 139.265 337.899 133.35C339.483 104.693 292.573 107.769 293.203 132.017Z" fill="none" opacity="1" stroke="#000000" stroke-linecap="round" stroke-linejoin="round" stroke-width="3"/>
<path d="M295.791 146.833C290.658 147.725 279.788 160.179 279.788 160.179" fill="none" opacity="1" stroke="#000000" stroke-linecap="round" stroke-linejoin="round" stroke-width="3"/>
<path d="M416.353 146.152C425.429 147.292 433.068 155.907 435.631 162.823" fill="none" opacity="1" stroke="#000000" stroke-linecap="round" stroke-linejoin="round" stroke-width="3"/>
<path d="M424.113 159.889L437.399 164.486L436.734 149.66" fill="none" opacity="1" stroke="#000000" stroke-linecap="round" stroke-linejoin="round" stroke-width="3"/>
<path d="M378.588 131.307C379.13 152.183 402.83 155.471 415.504 146.354C419.892 143.197 422.958 138.555 423.285 132.64C424.869 103.983 377.958 107.059 378.588 131.307Z" fill="none" opacity="1" stroke="#000000" stroke-linecap="round" stroke-linejoin="round" stroke-width="3"/>
<path d="M381.176 146.123C376.044 147.015 365.174 159.469 365.174 159.469" fill="none" opacity="1" stroke="#000000" stroke-linecap="round" stroke-linejoin="round" stroke-width="3"/>
<path d="M503.915 147.244C512.992 148.384 520.631 157 523.193 163.915" fill="none" opacity="1" stroke="#000000" stroke-linecap="round" stroke-linejoin="round" stroke-width="3"/>
<path d="M511.675 160.981L524.961 165.578L524.296 150.752" fill="none" opacity="1" stroke="#000000" stroke-linecap="round" stroke-linejoin="round" stroke-width="3"/>
<path d="M466.15 132.4C466.692 153.275 490.392 156.563 503.067 147.446C507.454 144.29 510.52 139.647 510.847 133.733C512.431 105.075 465.52 108.151 466.15 132.4Z" fill="none" opacity="1" stroke="#000000" stroke-linecap="round" stroke-linejoin="round" stroke-width="3"/>
<path d="M468.738 147.215C463.606 148.107 452.736 160.561 452.736 160.561" fill="none" opacity="1" stroke="#000000" stroke-linecap="round" stroke-linejoin="round" stroke-width="3"/>
<path d="M591.173 146.808C600.249 147.949 607.888 156.564 610.451 163.479" fill="none" opacity="1" stroke="#000000" stroke-linecap="round" stroke-linejoin="round" stroke-width="3"/>
<path d="M598.933 160.545L612.219 165.143L611.554 150.316" fill="none" opacity="1" stroke="#000000" stroke-linecap="round" stroke-linejoin="round" stroke-width="3"/>
<path d="M553.408 131.964C553.95 152.84 577.65 156.127 590.324 147.01C594.712 143.854 597.778 139.211 598.105 133.297C599.689 104.639 552.778 107.715 553.408 131.964Z" fill="none" opacity="1" stroke="#000000" stroke-linecap="round" stroke-linejoin="round" stroke-width="3"/>
<path d="M555.996 146.78C550.864 147.671 539.994 160.125 539.994 160.125" fill="none" opacity="1" stroke="#000000" stroke-linecap="round" stroke-linejoin="round" stroke-width="3"/>
<path d="M676.558 146.098C685.635 147.239 693.273 155.854 695.836 162.769" fill="none" opacity="1" stroke="#000000" stroke-linecap="round" stroke-linejoin="round" stroke-width="3"/>
<path d="M684.318 159.835L697.604 164.433L696.939 149.606" fill="none" opacity="1" stroke="#000000" stroke-linecap="round" stroke-linejoin="round" stroke-width="3"/>
<path d="M638.793 131.254C639.335 152.13 663.035 155.417 675.71 146.3C680.097 143.144 683.163 138.501 683.49 132.587C685.074 103.929 638.163 107.005 638.793 131.254Z" fill="none" opacity="1" stroke="#000000" stroke-linecap="round" stroke-linejoin="round" stroke-width="3"/>
<path d="M641.381 146.07C636.249 146.961 625.379 159.415 625.379 159.415" fill="none" opacity="1" stroke="#000000" stroke-linecap="round" stroke-linejoin="round" stroke-width="3"/>
<path d="M764.121 147.191C773.197 148.331 780.836 156.946 783.399 163.862" fill="none" opacity="1" stroke="#000000" stroke-linecap="round" stroke-linejoin="round" stroke-width="3"/>
<path d="M771.881 160.928L785.166 165.525L784.501 150.698" fill="none" opacity="1" stroke="#000000" stroke-linecap="round" stroke-linejoin="round" stroke-width="3"/>
<path d="M726.356 132.346C726.898 153.222 750.598 156.51 763.272 147.392C767.659 144.236 770.725 139.593 771.052 133.679C772.636 105.022 725.726 108.098 726.356 132.346Z" fill="none" opacity="1" stroke="#000000" stroke-linecap="round" stroke-linejoin="round" stroke-width="3"/>
<path d="M728.944 147.162C723.811 148.053 712.941 160.508 712.941 160.508" fill="none" opacity="1" stroke="#000000" stroke-linecap="round" stroke-linejoin="round" stroke-width="3"/>
</g>
</svg>
